<?xml version="1.0" encoding="utf-8"?>
<!-- Generator: Adobe Illustrator 27.5.0, SVG Export Plug-In . SVG Version: 6.00 Build 0)  -->
<svg version="1.1" xmlns="http://www.w3.org/2000/svg" xmlns:xlink="http://www.w3.org/1999/xlink" x="0px" y="0px"
	 viewBox="0 0 3710 3710" style="enable-background:new 0 0 3710 3710;" xml:space="preserve">
<g id="Background">
	<g>
		<g>
			<rect style="fill:#FFFFFF;" width="3710" height="3710"/>
		</g>
	</g>
</g>
<g id="Illustration">
	<g>
		<path style="fill:#F4F7FA;" d="M1197.229,591.87c-93.598,135.951,16.148,356.36-122.735,458.607
			c-135.192,99.53-301.27-63.612-428.68,22.062c-189.005,127.093-154.489,708.645,121.846,1069.975
			c83.103,108.665,152.541,150.944,183.294,273.838c66.037,263.885-166.05,420.86-121.884,551.374
			c99.445,293.868,1628.846,540.458,2242.51-342.713c286.606-412.478,329.489-1008.098,73.415-1460.475
			C2682.275,347.1,1407.246,286.821,1197.229,591.87z"/>
		<g>
			<path style="fill:#AEB7C4;" d="M405.807,1347.064l-3.264,95.85c-0.957,28.123,21.6,49.875,50.364,48.593l52.272-2.329
				c4.993,45.56,15.002,89.319,29.537,130.75l-44.154,26.485c-25.36,15.208-34.947,46.716-21.404,70.363l46.121,80.524
				c13.517,23.604,78.791,37.635,104.081,22.39l7.971-32.459c27.953,34.929,59.958,66.428,95.371,93.923l-24.161,39.956
				c-15.102,24.977-7.685,55.544,16.557,68.266l82.506,43.284c24.166,12.677,102.624,14.648,117.654-10.286l-23.548-50.306
				c42.84,14.618,88.092,24.567,135.161,29.348l-1.446,42.467c-0.95,27.867,21.199,49.224,49.449,47.712l96.128-5.146
				c28.15-1.508,51.721-25.249,52.668-53.035l1.441-42.342c47.232-9.674,92.882-24.298,136.34-43.285l20.309,35.872
				c13.176,23.274,94.08,35.247,118.754,20.126l33.773-56.849c24.599-15.081,33.905-46.12,20.796-69.36l-20.995-37.213
				c36.526-30.744,69.916-65.057,99.522-102.311l39.004,20.882c23.564,12.616,93.362,19.068,108.032-5.503l11.155-99.829
				c14.645-24.529,7.475-54.656-16.021-67.313l-40.99-22.087c16.838-42.15,29.432-86.159,37.289-131.479l50.339-2.243
				c27.635-1.231,50.783-24.547,51.721-52.083l3.196-93.853c0.938-27.537-20.688-48.92-48.322-47.765l-53.295,2.225
				c-6.061-43.582-16.762-85.422-31.631-125.052l48.78-29.404c24.429-14.733,33.673-45.568,20.659-68.903l9.281-93.262
				c-13.037-23.375-97.14-16.765-121.634-2.075l-51.333,30.788c-26.667-32.234-56.862-61.453-90.068-87.175l31.616-52.443
				c14.732-24.435,7.516-54.768-16.126-67.76l-35.164-50.883c-23.716-13.032-100.505,2.751-115.307,27.232l-32.494,53.739
				c-39.625-13.589-81.354-23.244-124.763-28.45l2.095-61.523c0.947-27.787-21.075-49.56-49.204-48.637l-96.061,3.15
				c-28.231,0.925-51.9,24.261-52.85,52.127l-2.101,61.697c-44.169,8.245-87.054,20.878-128.179,37.36l19.088-65.089
				c-13.374-23.707-92.963-17.818-118.065-3.014l-85.702,50.551c-25.179,14.85-34.704,46.153-21.261,69.892l28.812,50.885
				c-35.874,28.561-68.963,60.504-98.683,95.299l2.17-32.606c-24.324-13.103-109.377,1.596-124.545,26.439l-51.749,84.749
				c-15.194,24.887-7.729,55.659,16.668,68.726l48.612,26.022c-18.205,41.661-32.253,85.263-41.607,130.277l-55.339,2.312
				C430.873,1295.175,406.765,1318.942,405.807,1347.064z M650.497,1394.015c9.234-271.18,240.09-499.473,514.112-509.851
				c272.361-10.315,484.54,198.792,475.406,467.003c-9.133,268.211-236.203,496.331-508.664,509.607
				C857.228,1874.131,641.262,1665.194,650.497,1394.015z"/>
			<path style="fill:#D8DEE8;" d="M470.185,1346.25l-3.264,95.85c-0.958,28.122,21.599,49.875,50.362,48.593l52.274-2.329
				c4.993,45.56,15.002,89.318,29.537,130.749l-44.153,26.485c-25.361,15.208-34.948,46.717-21.406,70.364l46.122,80.524
				c13.518,23.605,44.986,30.362,70.275,15.118l41.778-25.188c27.953,34.93,59.958,66.428,95.37,93.924l-24.162,39.956
				c-15.101,24.976-7.684,55.543,16.557,68.266l82.506,43.284c24.167,12.677,55.933,2.731,70.963-22.202l23.144-38.391
				c42.84,14.619,88.092,24.568,135.161,29.348l-1.446,42.468c-0.949,27.865,21.199,49.223,49.449,47.711l96.129-5.146
				c28.149-1.506,51.72-25.249,52.667-53.035l1.442-42.343c47.231-9.673,92.881-24.298,136.34-43.284l20.309,35.872
				c13.176,23.275,43.87,29.865,68.544,14.745l83.984-51.468c24.599-15.081,33.905-46.121,20.795-69.36l-20.994-37.214
				c36.525-30.744,69.916-65.057,99.522-102.311l39.003,20.883c23.565,12.615,54.553,2.915,69.224-21.657l49.963-83.675
				c14.644-24.528,7.476-54.655-16.02-67.313l-40.991-22.086c16.838-42.152,29.433-86.161,37.289-131.48l50.338-2.243
				c27.637-1.232,50.784-24.547,51.723-52.083l3.196-93.854c0.937-27.536-20.688-48.92-48.322-47.765l-53.296,2.226
				c-6.06-43.583-16.761-85.422-31.63-125.052l48.78-29.404c24.428-14.731,33.673-45.568,20.658-68.901l-44.403-79.602
				c-13.037-23.375-43.455-30.427-67.949-15.736l-51.333,30.789c-26.668-32.235-56.862-61.453-90.069-87.177l31.616-52.442
				c14.733-24.435,7.517-54.768-16.126-67.76l-80.719-44.365c-23.716-13.032-54.95-3.767-69.752,20.716l-32.495,53.739
				c-39.625-13.589-81.353-23.244-124.763-28.451l2.096-61.522c0.946-27.787-21.075-49.56-49.204-48.638l-96.062,3.15
				c-28.23,0.926-51.899,24.261-52.848,52.126l-2.101,61.697c-44.169,8.246-87.054,20.879-128.179,37.361l-29.321-51.971
				c-13.374-23.708-44.555-30.937-69.657-16.132l-85.701,50.552c-25.18,14.849-34.704,46.153-21.261,69.891l28.813,50.886
				c-35.875,28.561-68.964,60.504-98.683,95.299l-50.862-27.403c-24.324-13.103-56.346-3.605-71.513,21.237l-51.75,84.749
				c-15.195,24.888-7.729,55.66,16.668,68.726l48.612,26.023c-18.206,41.661-32.254,85.263-41.607,130.277l-55.34,2.312
				C495.25,1294.36,471.143,1318.127,470.185,1346.25z M693.884,1394.109c9.626-282.684,250.275-520.66,535.923-531.48
				c283.915-10.754,505.098,207.226,495.576,486.814c-9.521,279.59-246.224,517.389-530.244,531.228
				C909.386,1894.594,684.258,1676.793,693.884,1394.109z"/>
		</g>
		<g>
			<g>
				<linearGradient id="SVGID_1_" gradientUnits="userSpaceOnUse" x1="3832.8647" y1="-246.5957" x2="426.9735" y2="5671.4341">
					<stop  offset="0" style="stop-color:#444B8C"/>
					<stop  offset="0.9964" style="stop-color:#3E4177"/>
				</linearGradient>
				<path style="fill:url(#SVGID_1_);" d="M2730.598,2078.845l-313.945,8.969c-34.389,0.983-55.029,43.183-35.429,73.026
					c100.15,152.529-15.253,301.661-108.403,311.182c-108.149,11.055-217.105-47.347-206.696-180.547
					c4.509-57.663,19.741-104.177,35.552-138.348c14.476-31.298-6.872-66.863-39.341-65.947l-373.085,10.522v332.219
					c0,25.351,25.481,41.348,46.887,28.862c30.91-18.024,77.345-34.893,140.12-31.158c125.98,7.49,197.538,114.657,151.947,205.887
					c-87.907,175.897-203.719,135.546-269.273,91.29c-21.463-14.489-50.704,3.426-50.704,30.873v382.838l974.712-61.718
					c32.605-2.065,57.891-29.289,57.546-61.957l12.403-927.077L2730.598,2078.845z"/>
				
					<linearGradient id="SVGID_00000177458990272408364540000000875730761315871922_" gradientUnits="userSpaceOnUse" x1="1362.7231" y1="2365.7256" x2="29.8041" y2="4150.6753">
					<stop  offset="0" style="stop-color:#444B8C"/>
					<stop  offset="0.9964" style="stop-color:#3E4177"/>
				</linearGradient>
				<path style="fill:url(#SVGID_00000177458990272408364540000000875730761315871922_);" d="M1758.932,2724.802
					c65.555,44.256,181.366,84.607,269.273-91.29c45.591-91.23-25.967-198.397-151.947-205.887
					c-62.775-3.734-109.21,13.134-140.12,31.158c-21.406,12.486-46.887-3.511-46.887-28.862v-332.219l-353.167,9.96
					c-35.513,1.002-57.688-38.336-39.883-70.713c122.56-222.863-75.668-313.033-125.716-308.403
					c-55.375,5.125-228.327,39.458-228.327,171.595c0,59.859,17.263,110.079,36.126,147.061
					c16.366,32.084-5.877,71.442-41.641,72.452l-319.487,9.018v329.086c0,30.252,0,508.589,0,685.986
					c0,35.492,29.989,63.586,65.407,61.29l1025.665-66.521v-382.838C1708.228,2728.228,1737.469,2710.313,1758.932,2724.802z"/>
				
					<linearGradient id="SVGID_00000150070403588876588760000014285597876764417429_" gradientUnits="userSpaceOnUse" x1="2706.3928" y1="-996.1946" x2="-796.1527" y2="5089.7808">
					<stop  offset="0" style="stop-color:#444B8C"/>
					<stop  offset="0.9964" style="stop-color:#3E4177"/>
				</linearGradient>
				<path style="fill:url(#SVGID_00000150070403588876588760000014285597876764417429_);" d="M617.156,2128.673l319.487-9.018
					c35.764-1.01,58.008-40.368,41.641-72.452c-18.863-36.982-36.126-87.202-36.126-147.061
					c0-132.137,172.951-166.47,228.327-171.595c50.048-4.63,248.276,85.54,125.716,308.403
					c-17.805,32.377,4.37,71.715,39.883,70.713l353.167-9.96v-338.237c0-28.205,30.386-44.394,52.056-28.166
					c102.125,76.493,245.855,5.576,270.074-53.177c28.704-69.632,36.522-210.895-110.105-251.592
					c-77.139-21.407-133.675-0.95-170.131,23.571c-21.66,14.565-49.903-1.662-49.903-28.648l22.291-312.685l-22.291-8.916
					l-967.919-5.25c-52.074-0.282-94.463,41.806-94.553,93.88L617.156,2128.673z"/>
				
					<linearGradient id="SVGID_00000130610531192928923900000016708410479949675454_" gradientUnits="userSpaceOnUse" x1="3850.4377" y1="-229.4819" x2="452.6125" y2="5674.5327">
					<stop  offset="0" style="stop-color:#FFC444"/>
					<stop  offset="0.9964" style="stop-color:#F36F56"/>
				</linearGradient>
				<path style="fill:url(#SVGID_00000130610531192928923900000016708410479949675454_);" d="M2752.889,2087.761l-313.945,8.969
					c-34.389,0.982-55.029,43.183-35.429,73.026c100.15,152.529-15.253,301.66-108.403,311.182
					c-108.149,11.055-217.105-47.347-206.696-180.547c4.509-57.664,19.741-104.176,35.552-138.348
					c14.476-31.298-6.872-66.863-39.341-65.947l-373.085,10.522v332.219c0,25.351,25.481,41.348,46.886,28.862
					c30.91-18.025,77.345-34.893,140.12-31.158c125.979,7.49,197.538,114.657,151.947,205.887
					c-87.907,175.897-203.719,135.545-269.273,91.29c-21.463-14.489-50.704,3.426-50.704,30.873v382.838l974.712-61.718
					c32.605-2.065,57.891-29.289,57.546-61.957L2752.889,2087.761z"/>
				<path style="opacity:0.3;fill:#FFFFFF;" d="M2708.681,2137.114l-265.349,8.026c49.427,78.077,57.455,167.845,21.977,247.396
					c-33.423,74.944-100.708,130.045-167.628,136.998c-5.917,0.613-11.92,1.054-17.845,1.312
					c-75.744,3.287-144.279-22.595-187.811-71.128c-37.515-41.832-54.742-97.809-49.736-161.792
					c4.228-53.957,17.201-105.286,38.551-152.582l-321.968,9.62v257.881c34.089-15.84,71.391-24.599,111.209-26.105
					c10.754-0.407,21.803-0.275,32.835,0.404c83.764,5.121,153.809,47.724,187.685,113.86
					c26.361,51.474,26.566,110.824,0.549,162.975c-62.152,124.586-139.878,154.209-194.32,157.078
					c-38.86,2.044-78.8-8.256-119.036-30.71v304.438l891.778-54.971c27.811-1.714,49.388-24.937,49.061-52.797L2708.681,2137.114z"
					/>
				
					<linearGradient id="SVGID_00000176748351818364677440000018334797456529680553_" gradientUnits="userSpaceOnUse" x1="1385.0138" y1="2374.6418" x2="52.0947" y2="4159.5913">
					<stop  offset="0.0036" style="stop-color:#E38DDD"/>
					<stop  offset="1" style="stop-color:#9571F6"/>
				</linearGradient>
				<path style="fill:url(#SVGID_00000176748351818364677440000018334797456529680553_);" d="M1781.223,2733.719
					c65.555,44.256,181.366,84.607,269.273-91.29c45.591-91.23-25.967-198.397-151.947-205.887
					c-62.775-3.734-109.21,13.134-140.12,31.158c-21.406,12.486-46.886-3.511-46.886-28.862v-332.219l-353.167,9.96
					c-35.513,1.002-57.687-38.336-39.883-70.713c122.56-222.863-75.668-313.033-125.716-308.403
					c-55.376,5.125-228.327,39.458-228.327,171.595c0,59.859,17.263,110.079,36.126,147.061
					c16.366,32.083-5.877,71.442-41.641,72.452l-319.487,9.018v329.086c0,30.252,0,508.589,0,685.986
					c0,35.492,29.989,63.586,65.407,61.289l1025.665-66.52v-382.838C1730.519,2737.144,1759.76,2719.229,1781.223,2733.719z"/>
				<path style="opacity:0.3;fill:#FFFFFF;" d="M2008.828,2550.794c-19.017-36.994-62.897-61.852-114.648-64.842
					c-8.146-0.472-16.252-0.543-24.097-0.22c-33.462,1.378-63.746,9.853-89.981,25.2c-11.146,6.525-23.619,10.258-36.066,10.784
					c-20.828,0.88-40.628-6.8-55.739-21.642c-15.625-15.347-24.241-36.431-24.241-59.366v-282.911l-305.676,9.134
					c-34.228,1.023-64.943-16.441-82.118-46.747c-17.214-30.374-17.206-67.214,0.035-98.495
					c36.658-66.534,42.892-122.075,18.568-165.241c-27.262-48.377-84.025-68.587-98.766-68.527
					c-8.825,0.923-181.903,20.431-181.903,120.091c0,42.307,10.266,83.913,30.489,123.634c15.769,30.966,14.554,67.625-3.244,98.112
					c-17.61,30.173-48.443,48.816-82.505,49.835l-268.675,8.034l-5.412,930.717c-0.183,31.612,26.675,56.637,58.195,54.224
					l940.056-71.947v-333.639c0-46.454,35.961-85.96,80.046-88.057c16.008-0.762,31.503,3.604,44.816,12.617
					c21.99,14.892,55.23,32.266,88.867,30.61c42.326-2.084,80.302-36.218,112.902-101.338
					C2024.043,2592.229,2017.139,2566.963,2008.828,2550.794z"/>
				
					<linearGradient id="SVGID_00000162340332036808080380000009756268119239195015_" gradientUnits="userSpaceOnUse" x1="2724.2346" y1="-979.5482" x2="-769.9816" y2="5091.9541">
					<stop  offset="0" style="stop-color:#AA80F9"/>
					<stop  offset="0.9964" style="stop-color:#6165D7"/>
				</linearGradient>
				<path style="fill:url(#SVGID_00000162340332036808080380000009756268119239195015_);" d="M639.447,2137.589l319.487-9.018
					c35.764-1.01,58.008-40.368,41.641-72.452c-18.863-36.982-36.126-87.202-36.126-147.061
					c0-132.137,172.951-166.47,228.327-171.595c50.048-4.63,248.276,85.54,125.716,308.403
					c-17.805,32.377,4.37,71.715,39.883,70.713l353.167-9.96v-338.238c0-28.204,30.386-44.394,52.056-28.166
					c102.125,76.492,245.855,5.576,270.074-53.178c28.704-69.632,36.522-210.895-110.105-251.592
					c-77.139-21.407-133.675-0.95-170.131,23.571c-21.66,14.565-49.903-1.662-49.903-28.648v-321.602l-967.919-5.251
					c-52.074-0.282-94.463,41.806-94.552,93.88L639.447,2137.589z"/>
				<path style="opacity:0.3;fill:#FFFFFF;" d="M685.644,1197.473c0.044-27.229,22.23-49.378,49.453-49.378l923.856,5.01v277.262
					c0,21.298,8.115,41.185,22.848,56.001c14.345,14.426,34.08,22.698,54.141,22.695c15.02,0,29.67-4.514,42.37-13.054
					c24.637-16.57,52.348-24.97,82.362-24.97c16.217,0,33.366,2.477,50.972,7.362c40.171,11.15,66.828,31.155,81.487,61.153
					c19.901,40.73,14.001,94.89-0.675,130.493c-8.572,20.793-62.897,58.981-125.942,58.981c-28.856,0-54.494-8.241-76.193-24.495
					c-13.418-10.046-29.217-15.357-45.691-15.357c-42.831,0-77.673,35.532-77.673,79.205v294.897l-309.578,8.731
					c-0.414-0.618-1.158-2.24,0.174-4.663c68.16-123.948,46.196-211.314,15.765-262.778
					c-45.121-76.306-132.08-111.858-176.639-111.858c-2.743,0-5.438,0.122-8.011,0.359
					c-99.842,9.243-268.801,65.135-268.801,215.988c0,57.697,13.792,113.991,40.994,167.318c1.206,2.366,0.318,4.524-0.322,5.599
					c-1.175,1.985-2.36,2.02-2.865,2.033l-273.568,7.721L685.644,1197.473z"/>
				<g style="opacity:0.3;">
					
						<linearGradient id="SVGID_00000028319466891492311260000009840044034829908907_" gradientUnits="userSpaceOnUse" x1="2700.4355" y1="-1015.6542" x2="-811.9178" y2="5087.3628">
						<stop  offset="0" style="stop-color:#AA80F9"/>
						<stop  offset="0.9964" style="stop-color:#6165D7"/>
					</linearGradient>
					<path style="fill:url(#SVGID_00000028319466891492311260000009840044034829908907_);" d="M1410.372,1642.594
						c-40.605-219.86,23.819-373.993,85.159-534.957l-762.904-4.138c-50.426-0.274-91.473,40.482-91.56,90.908l-1.62,943.182
						l319.485-9.018c35.766-1.01,58.01-40.37,41.643-72.452c-18.863-36.982-36.127-87.203-36.127-147.061
						c0-132.139,172.952-166.47,228.329-171.596c50.047-4.63,248.275,85.54,125.715,308.403
						c-17.804,32.376,4.37,71.715,39.883,70.713l346.436-9.77C1565.652,1987.532,1450.662,1860.761,1410.372,1642.594z"/>
				</g>
				<g style="opacity:0.3;">
					
						<linearGradient id="SVGID_00000106868360083279648270000001988542083539513000_" gradientUnits="userSpaceOnUse" x1="3748.9507" y1="-350.5797" x2="304.7836" y2="5633.9575">
						<stop  offset="0" style="stop-color:#FFC444"/>
						<stop  offset="0.9964" style="stop-color:#F36F56"/>
					</linearGradient>
					<path style="fill:url(#SVGID_00000106868360083279648270000001988542083539513000_);" d="M1711.541,2112.567v326.271
						c0,25.35,25.481,41.348,46.887,28.863c30.91-18.025,77.345-34.895,140.12-31.16c125.981,7.49,197.538,114.658,151.948,205.889
						c-87.908,175.895-203.72,135.546-269.273,91.289c-21.463-14.488-50.705,3.426-50.705,30.874v382.837l648.772-41.08
						c-29.671-178.106-82.982-317.793-141.028-428.043C2088.843,2394.517,1883.029,2258.476,1711.541,2112.567z"/>
				</g>
			</g>
			<g>
				
					<linearGradient id="SVGID_00000175282493649547889990000017144370470991675065_" gradientUnits="userSpaceOnUse" x1="3291.0037" y1="69.9256" x2="2270.396" y2="1494.5233">
					<stop  offset="0" style="stop-color:#444B8C"/>
					<stop  offset="0.9964" style="stop-color:#3E4177"/>
				</linearGradient>
				<path style="fill:url(#SVGID_00000175282493649547889990000017144370470991675065_);" d="M1972.561,1108.296
					c36.456-24.521,92.992-44.978,170.132-23.571c146.627,40.697,138.81,181.961,110.105,251.593
					c-24.219,58.754-167.949,129.67-270.074,53.177c-21.67-16.228-52.056-0.039-52.056,28.166v338.237l373.086-10.522
					c32.469-0.915,53.817,34.649,39.34,65.948c-15.811,34.171-31.043,80.684-35.552,138.348
					c-10.409,133.2,98.547,191.602,206.696,180.547c93.15-9.522,208.553-158.654,108.402-311.182
					c-19.6-29.842,1.04-72.043,35.429-73.025l313.945-8.969l-7.68-916.35c-0.282-33.683-27.636-60.857-61.32-60.916l-980.356-1.73
					v321.602C1922.658,1106.635,1950.902,1122.861,1972.561,1108.296z"/>
				
					<linearGradient id="SVGID_00000005237549538432684500000013346338168469739394_" gradientUnits="userSpaceOnUse" x1="3308.8364" y1="69.5025" x2="2288.2285" y2="1494.1003">
					<stop  offset="0" style="stop-color:#FF9085"/>
					<stop  offset="1" style="stop-color:#FB6FBB"/>
				</linearGradient>
				<path style="fill:url(#SVGID_00000005237549538432684500000013346338168469739394_);" d="M1990.394,1107.873
					c36.456-24.521,92.992-44.978,170.131-23.571c146.627,40.697,138.81,181.961,110.105,251.593
					c-24.218,58.754-167.949,129.67-270.074,53.177c-21.67-16.228-52.056-0.039-52.056,28.166v338.237l373.085-10.522
					c32.469-0.916,53.817,34.649,39.341,65.947c-15.811,34.171-31.044,80.684-35.552,138.348
					c-10.409,133.2,98.547,191.602,206.696,180.547c93.15-9.522,208.552-158.654,108.402-311.182
					c-19.6-29.842,1.04-72.043,35.429-73.025l313.945-8.969l-7.679-916.35c-0.282-33.683-27.636-60.857-61.321-60.916
					l-980.356-1.729v321.602C1940.491,1106.212,1968.734,1122.438,1990.394,1107.873z"/>
				<path style="opacity:0.3;fill:#FFFFFF;" d="M2675.902,1697.045l269.737-7.253l-7.741-831.446
					c-0.261-28.255-23.244-51.019-51.499-51.011l-898.548,0.243v244.88c33.527-17.569,69.989-26.51,108.697-26.651
					c24.685-0.089,50.28,3.526,76.062,10.725c84.552,23.615,123.447,75.369,141.219,114.595
					c32.13,70.929,20.658,151.805-0.801,203.959c-25.817,62.737-118.114,115.195-206.183,116.845
					c-39.897,0.748-77.786-8.583-111.013-27.2v259.724l325.755-8.641c31.468-0.834,60.071,15.373,76.563,43.321
					c16.378,27.776,17.859,62.3,3.958,92.413c-17.058,36.932-27.415,77.364-30.75,120.155c-2.821,36.131,5.751,65.66,25.464,87.735
					c25.625,28.699,70.511,44.622,119.968,42.646c4.215-0.168,8.49-0.468,12.708-0.894c28.516-2.863,70.289-31.668,91.631-79.358
					c15.459-34.552,24.898-89.322-17.898-154.378c-18.655-28.359-20.767-65.697-5.499-97.389
					C2613.066,1718.237,2643.041,1697.929,2675.902,1697.045z"/>
			</g>
			<g>
				
					<linearGradient id="SVGID_00000013875725112225576420000005818368361164915372_" gradientUnits="userSpaceOnUse" x1="4134.8394" y1="926.6198" x2="4063.2278" y2="1062.6816" gradientTransform="matrix(0.9284 0.3717 -0.3717 0.9284 -459.5312 -1360.2041)">
					<stop  offset="0" style="stop-color:#FFC444"/>
					<stop  offset="0.9964" style="stop-color:#F36F56"/>
				</linearGradient>
				<path style="fill:url(#SVGID_00000013875725112225576420000005818368361164915372_);" d="M3007.758,1140.105
					c0,0-14.796-21.572-10.907-50.018c3.888-28.446-15.493-73.71-25.19-77.592c-9.697-3.882-2.6,43.963,1.92,60.775
					c4.521,16.811,9.21,61.365,9.21,61.365L3007.758,1140.105z"/>
				
					<linearGradient id="SVGID_00000052790717396061368870000000839729776520142768_" gradientUnits="userSpaceOnUse" x1="4469.6616" y1="1655.4023" x2="4965.0317" y2="3306.6421" gradientTransform="matrix(0.9284 0.3717 -0.3717 0.9284 -459.5312 -1360.2041)">
					<stop  offset="0" style="stop-color:#444B8C"/>
					<stop  offset="0.9964" style="stop-color:#26264F"/>
				</linearGradient>
				<path style="fill:url(#SVGID_00000052790717396061368870000000839729776520142768_);" d="M2964.847,1122.924
					c12.485-1.036,24.97-2.073,37.456-3.109c48.432,24.307,183.716,100.254,241.811,255.236
					c78.092,208.33-16.415,471.103-112.519,484.531c-69.865,9.761-169.672-108.186-164.576-210.734
					c4.321-86.949,81.435-109.99,107.747-201.283C3093.003,1384.286,3088.5,1282.431,2964.847,1122.924z"/>
				
					<linearGradient id="SVGID_00000081631154219131046820000017118591879365779085_" gradientUnits="userSpaceOnUse" x1="2214.4595" y1="1686.2644" x2="2147.2771" y2="1880.9568">
					<stop  offset="0" style="stop-color:#FFC444"/>
					<stop  offset="0.9964" style="stop-color:#F36F56"/>
				</linearGradient>
				<path style="fill:url(#SVGID_00000081631154219131046820000017118591879365779085_);" d="M2272.668,1744.817
					c0,0,0-22.531-12.874-32.186c-12.875-9.656-70.809,16.093-96.558,16.093h-41.841c0,0,32.186,32.186,48.278,28.967
					c16.093-3.218,74.028-12.874,83.684-6.437c9.656,6.437,9.656,6.437,9.656,6.437L2272.668,1744.817z"/>
				
					<linearGradient id="SVGID_00000081646093581615795720000003161739247915687869_" gradientUnits="userSpaceOnUse" x1="-2133.7571" y1="1600.2126" x2="-2299.8542" y2="1718.5946" gradientTransform="matrix(-1 0 0 1 719.5057 0)">
					<stop  offset="0" style="stop-color:#FFC444"/>
					<stop  offset="0.9964" style="stop-color:#F36F56"/>
				</linearGradient>
				<polygon style="fill:url(#SVGID_00000081646093581615795720000003161739247915687869_);" points="2887.537,1583.135 
					2925.896,1635.798 2888.746,1667.008 2856.754,1601.536 				"/>
				<g>
					<g>
						
							<linearGradient id="SVGID_00000031175551851371434900000006356515897752092804_" gradientUnits="userSpaceOnUse" x1="4067.2368" y1="4244.603" x2="3901.1428" y2="4362.9829" gradientTransform="matrix(0.8677 -0.4971 0.4971 0.8677 -3324.5425 1107.7076)">
							<stop  offset="0" style="stop-color:#FFC444"/>
							<stop  offset="0.9964" style="stop-color:#F36F56"/>
						</linearGradient>
						<path style="fill:url(#SVGID_00000031175551851371434900000006356515897752092804_);" d="M2876.467,1612.838
							c-3.742,0.071-28.487,10.514-38.802-0.1c-14.006-14.407-10.604-43.658-10.608-48.049c-0.017-18.383,0.9-21.392,3.237-25.848
							l3.394-5.923c0,0,0.232-0.28,0.483-0.56c2.642-2.945,13.624-9.351,16.15-10.098c8.064-2.382,31.753,22.877,52.17,65.693
							c1.162,1.421,2.32,2.864,3.476,4.325C2908.967,1596.077,2877.095,1614.422,2876.467,1612.838z"/>
						<path style="fill:#26264F;" d="M2808.167,1544.072c7.104,6.219,22.256,8.164,29.023,9.034c0.991,0.126,4,0.75,7.44,2.563
							c0.502,0.264,1.006,0.616,1.563,1.125c7.239,6.591-0.486,23.172,3.986,25.457c3.242,1.657,10.106-6.643,12.388-4.933
							c2.148,1.611-2.735,10.018-0.223,11.978c1.897,1.483,5.424-2.732,9.872-1.299c2.215,0.712,2.438,2.111,6.391,5.822
							c2.237,2.099,4.94,4.258,6.704,5.315c8.57,5.149,22.693,1.057,23.476-3.29c0.217-1.213-0.748-1.606-1.598-4.815
							c0,0-0.786-2.974-0.609-7.003c0.253-5.756,4.871-12.282,8.741-20.319c7.169-14.877,6.445-23.844,6.078-26.808
							c-0.04-0.332-0.084-0.635-0.125-0.912c-0.062-0.503-0.148-0.993-0.255-1.473c-2.282-10.172-14.452-15.568-20.623-17.798
							c-8.8-3.131-22.91-7.18-40.582-7.861c-4.81-0.186-51.407-1.714-58.01,16.023
							C2799.447,1531.213,2803.342,1539.847,2808.167,1544.072z"/>
						
							<linearGradient id="SVGID_00000060718645843490361200000016012249305595503239_" gradientUnits="userSpaceOnUse" x1="4066.3801" y1="4243.3994" x2="3900.2854" y2="4361.7793" gradientTransform="matrix(0.8677 -0.4971 0.4971 0.8677 -3324.5425 1107.7076)">
							<stop  offset="0" style="stop-color:#FFC444"/>
							<stop  offset="0.9964" style="stop-color:#F36F56"/>
						</linearGradient>
						<path style="fill:url(#SVGID_00000060718645843490361200000016012249305595503239_);" d="M2853.169,1576.702
							c0.8-6.06,8.572-4.996,11.656,0.604c3.085,5.6,0.814,14.4-5.071,16.158
							C2853.869,1595.226,2852.091,1584.857,2853.169,1576.702z"/>
						<path style="fill:#26264F;" d="M2849.453,1568.846c0,0-4.186,30.871-19.689,23.581c-10.427-4.903-0.804,23.657,11.901,25.563
							c12.705,1.906,18.718,0.572,18.528-1.811c-0.189-2.383-7.462-42.336-5.692-43.723
							C2856.271,1571.069,2849.453,1568.846,2849.453,1568.846z"/>
					</g>
				</g>
				
					<linearGradient id="SVGID_00000152976332806225641910000007997833512204713621_" gradientUnits="userSpaceOnUse" x1="-2514.782" y1="3129.2144" x2="-2541.9617" y2="3314.0361" gradientTransform="matrix(-1 0 0 1 719.5057 0)">
					<stop  offset="0" style="stop-color:#FFC444"/>
					<stop  offset="0.9964" style="stop-color:#F36F56"/>
				</linearGradient>
				<polygon style="fill:url(#SVGID_00000152976332806225641910000007997833512204713621_);" points="3255.561,3137.437 
					3250.056,3202.607 3226.544,3212.993 3217.559,3144.04 				"/>
				
					<linearGradient id="SVGID_00000161633521581117840410000008197332860448769721_" gradientUnits="userSpaceOnUse" x1="-2542.8792" y1="3222.3403" x2="-2437.5552" y2="3222.3403" gradientTransform="matrix(-1 0 0 1 719.5057 0)">
					<stop  offset="0" style="stop-color:#311944"/>
					<stop  offset="1" style="stop-color:#893976"/>
				</linearGradient>
				<path style="fill:url(#SVGID_00000161633521581117840410000008197332860448769721_);" d="M3257.938,3201.808l4.447,21.907
					c0,0-1.346,9.461-52.803,22.129c-51.458,12.667-59.828-7.668-47.489-11.089c12.339-3.422,50.841-21.762,50.841-21.762
					l32.181-17.217C3250.33,3192.986,3256.76,3196.011,3257.938,3201.808z"/>
				
					<linearGradient id="SVGID_00000040549687897849066150000014461707455495961744_" gradientUnits="userSpaceOnUse" x1="-2114.0576" y1="3079.7688" x2="-2155.7327" y2="3329.8201" gradientTransform="matrix(-1 0 0 1 719.5057 0)">
					<stop  offset="0" style="stop-color:#FFC444"/>
					<stop  offset="0.9964" style="stop-color:#F36F56"/>
				</linearGradient>
				<polygon style="fill:url(#SVGID_00000040549687897849066150000014461707455495961744_);" points="2850.812,3100.367 
					2876.266,3165.397 2862.555,3183.23 2812.193,3122.135 				"/>
				
					<linearGradient id="SVGID_00000181776656251645494510000003890462673771308945_" gradientUnits="userSpaceOnUse" x1="-2176.4573" y1="3202.6064" x2="-2094.7114" y2="3202.6064" gradientTransform="matrix(-1 0 0 1 719.5057 0)">
					<stop  offset="0" style="stop-color:#311944"/>
					<stop  offset="1" style="stop-color:#893976"/>
				</linearGradient>
				<path style="fill:url(#SVGID_00000181776656251645494510000003890462673771308945_);" d="M2880.537,3159.79l15.313,16.286
					c0,0,3.835,8.753-33.249,46.611c-37.083,37.857-54.905,24.972-46.215,15.567c8.69-9.403,31.773-45.264,31.773-45.264
					l18.301-31.577C2869.426,3156.293,2876.486,3155.479,2880.537,3159.79z"/>
				
					<linearGradient id="SVGID_00000032615092490476493880000013299968928383332277_" gradientUnits="userSpaceOnUse" x1="2995.8599" y1="2739.1521" x2="3314.7764" y2="2739.1521">
					<stop  offset="0" style="stop-color:#AA80F9"/>
					<stop  offset="0.9964" style="stop-color:#6165D7"/>
				</linearGradient>
				<path style="fill:url(#SVGID_00000032615092490476493880000013299968928383332277_);" d="M3192.55,2328.977
					c4.306,39.679,12.171,100.069,27.145,172.681c33.814,163.983,69.766,224.853,86.485,318.438
					c14.091,78.87,17.15,195.714-40.902,350.565c-18.572,1.586-37.145,3.163-55.718,4.749
					c-5.033-125.357-29.489-219.997-49.625-281.102c-39.126-118.732-107.225-248.258-154.016-449.366
					c-9.731-41.816-19.466-90.719,7.248-119.589C3059.15,2275.659,3178.18,2323.081,3192.55,2328.977z"/>
				
					<linearGradient id="SVGID_00000059279041070709294800000005576808019150920620_" gradientUnits="userSpaceOnUse" x1="-2745.6221" y1="2589.27" x2="-2349.4089" y2="2772.8809" gradientTransform="matrix(-1 0 0 1 719.5057 0)">
					<stop  offset="0" style="stop-color:#AA80F9"/>
					<stop  offset="0.9964" style="stop-color:#6165D7"/>
				</linearGradient>
				<path style="opacity:0.3;fill:url(#SVGID_00000059279041070709294800000005576808019150920620_);" d="M3013.167,2325.353
					c45.983-49.694,165.013-2.272,179.384,3.624c2.331,21.482,5.763,49.2,10.742,81.469
					c-66.562,89.422-70.894,149.104-59.664,188.513c17.347,60.877,73.579,80.745,76.102,152.204
					c1.689,47.82-22.771,59.321-14.495,106.906c9.079,52.193,41.204,53.85,52.547,103.281
					c12.331,53.745-20.011,76.308-25.368,143.145c-1.452,18.141-0.839,41.222,5.164,68.53c-9.338,0.793-18.68,1.584-28.017,2.385
					c-5.033-125.357-29.489-219.997-49.625-281.102c-39.126-118.732-107.225-248.258-154.016-449.366
					C2996.188,2403.126,2986.452,2354.224,3013.167,2325.353z"/>
				
					<linearGradient id="SVGID_00000175321259799410789910000015733891757269005445_" gradientUnits="userSpaceOnUse" x1="2693.2917" y1="2718.5481" x2="3163.5591" y2="2718.5481">
					<stop  offset="0" style="stop-color:#AA80F9"/>
					<stop  offset="0.9964" style="stop-color:#6165D7"/>
				</linearGradient>
				<path style="fill:url(#SVGID_00000175321259799410789910000015733891757269005445_);" d="M3163.559,2283.678
					c-4.407,34.584-15.087,85.984-44.816,139.769c-51.54,93.245-112.544,107.203-183.188,202.063
					c-16.399,22.019-63.969,89.557-87.277,180.013c-34.08,132.26-0.146,250.865,26.527,317.822
					c-16.694,10.022-33.388,20.052-50.083,30.074c-40.361-50.26-111.461-154.179-127.98-300.481
					c-34.14-302.37,195.699-512.551,221.875-535.717C3000.264,2306.038,3081.911,2294.861,3163.559,2283.678z"/>
				
					<linearGradient id="SVGID_00000063621018851462880660000013998317973185664953_" gradientUnits="userSpaceOnUse" x1="2779.1702" y1="1923.1482" x2="3274.5601" y2="3574.4524">
					<stop  offset="0" style="stop-color:#444B8C"/>
					<stop  offset="0.9964" style="stop-color:#26264F"/>
				</linearGradient>
				<path style="fill:url(#SVGID_00000063621018851462880660000013998317973185664953_);" d="M3058.444,1570.799
					c0,0,35.549-0.977,72.809,27.37c99.717,75.869,122.815,303.992,122.815,303.992c10.074,99.488,13.605,257.235-36.149,452.183
					c-37.669,3.228-102.699,9.145-184.706,18.488c-104.076,11.863-137.537,18.085-165.98-3.666
					c-38.458-29.402-32.291-82.834-40.698-157.967c-7.306-65.287-27.059-159.841-85.162-273.606
					c-74.728,77.482-183.725,110.077-284.26,83.711c-119.605-31.369-207.927-141.135-215.76-271.61
					c10.999-6.539,21.997-13.073,32.995-19.613c37.738,31.759,102.844,76.421,189.759,86.203
					c136.688,15.38,259.883-63.114,311.693-96.127c75.786-48.285,156.334-88.673,233.743-134.311
					C3015.797,1582.159,3033.885,1571.472,3058.444,1570.799z"/>
				
					<linearGradient id="SVGID_00000041999336094181048940000014929289071236636588_" gradientUnits="userSpaceOnUse" x1="-1875.8572" y1="1476.7501" x2="-2629.6304" y2="2418.9668" gradientTransform="matrix(-1 0 0 1 719.5057 0)">
					<stop  offset="0" style="stop-color:#444B8C"/>
					<stop  offset="0.9964" style="stop-color:#26264F"/>
				</linearGradient>
				<path style="opacity:0.3;fill:url(#SVGID_00000041999336094181048940000014929289071236636588_);" d="M2958.808,2341.661
					c9.555-1.274,88.219-12.782,112.342-67.043c18.635-41.916-14.979-65.024,1.812-114.153c18.195-53.24,66.202-51.052,83.35-101.47
					c13.805-40.585-11.823-58.123-19.932-117.777c-14.113-103.827,51.267-140.745,45.299-230.119
					c-1.829-27.391-10.574-61.904-37.13-101.362c88.454,85.02,109.519,292.425,109.519,292.425
					c10.074,99.488,13.605,257.235-36.149,452.183c-37.669,3.228-102.699,9.145-184.706,18.488
					c-104.076,11.863-137.537,18.085-165.98-3.666c-18.225-13.936-26.381-33.33-30.863-57.806
					C2868.572,2331.723,2910.635,2348.073,2958.808,2341.661z"/>
			</g>
			<g>
				<g>
					<g>
						<path style="fill:#FFFFFF;" d="M978.61,2859.011l55.028-3.921c15.935-1.141,29.193-14.252,29.193-29.278v-107.81
							c0-15.026-12.798-26.376-28.734-25.364l-55.542,3.495c-16.046,1.019-29.92,14.115-29.92,29.221v108.388
							C948.634,2848.85,962.565,2860.16,978.61,2859.011z"/>
					</g>
					<g>
						<path style="fill:#FFFFFF;" d="M1137.099,2847.777l54.1-3.856c15.69-1.123,28.653-14.121,28.653-29.03V2634.44
							c0-14.909-13.339-26.227-29.029-25.288l-53.407,3.221c-15.799,0.945-28.192,13.865-28.192,28.857v181.451
							C1109.224,2837.672,1121.3,2848.908,1137.099,2847.777z"/>
					</g>
					<g>
						<path style="fill:#FFFFFF;" d="M1287.209,2836.978l52.018-3.79c15.453-1.107,26.94-13.989,26.94-28.783v-241.573
							c0-14.795-11.541-26.099-26.993-25.223l-52.445,2.969c-15.563,0.882-27.621,13.626-27.621,28.506v242.964
							C1259.107,2826.928,1271.646,2838.093,1287.209,2836.978z"/>
					</g>
					<g>
						<path style="fill:#FFFFFF;" d="M1374.228,2858.57l-436.823,31.851c-7.306,0.533-13.752,6.53-13.752,13.394v7.102
							c0,6.864,6.098,11.985,13.404,11.44l437.086-32.541c6.989-0.521,13.435-6.38,13.435-13.087v-6.939
							C1387.579,2863.083,1381.218,2858.06,1374.228,2858.57z"/>
					</g>
				</g>
				<g>
					<g>
						<path style="fill:#FFFFFF;" d="M954.232,2625.054c-5.875,0.352-11.594-2.175-14.737-7.119
							c-4.687-7.364-1.889-17.293,6.248-22.169l342.726-205.406c7.847-4.708,17.883-2.618,22.395,4.662
							c4.514,7.276,1.82,16.992-6.025,21.707l-342.156,205.688C960.019,2624.021,957.106,2624.882,954.232,2625.054z"/>
					</g>
					<g>
						<path style="fill:#FFFFFF;" d="M1281.473,2480.462c-1.273,0.068-2.564-0.004-3.855-0.231
							c-8.829-1.555-14.272-9.746-12.147-18.294l11.612-46.726l-52.943-12.822c-8.73-2.115-13.641-10.681-10.966-19.128
							c2.678-8.447,11.91-13.565,20.645-11.439l67.646,16.496c8.281,2.021,13.155,9.947,11.132,18.101l-15.176,61.166
							C1295.615,2474.872,1288.891,2480.064,1281.473,2480.462z"/>
					</g>
				</g>
			</g>
			<g>
				<g>
					<path style="fill:#FFFFFF;" d="M2647.054,1384.549c-133.545,0-242.19-108.646-242.19-242.19s108.645-242.19,242.19-242.19
						c133.546,0,242.19,108.646,242.19,242.19S2780.6,1384.549,2647.054,1384.549z M2647.054,933.447
						c-115.195,0-208.912,93.717-208.912,208.912c0,115.195,93.717,208.912,208.912,208.912s208.912-93.717,208.912-208.912
						C2855.966,1027.164,2762.249,933.447,2647.054,933.447z"/>
				</g>
				<g>
					<path style="fill:#FFFFFF;" d="M2794.956,1143.304c0,15.061-8.277,28.549-18.488,28.549h-258.829
						c-10.211,0-18.488-13.489-18.488-28.549l0,0c0-15.061,8.277-28.549,18.488-28.549h258.829
						C2786.679,1114.755,2794.956,1128.244,2794.956,1143.304L2794.956,1143.304z"/>
				</g>
			</g>
			<g>
				<g>
					<path style="fill:#FFFFFF;" d="M2572.23,2955.093l-380.683,21.019c-17.563,0.97-33.977-7.202-42.808-21.344
						c-8.846-14.171-8.846-32.358-0.002-47.434L2344.3,2574.12c8.554-14.562,24.429-23.771,41.399-24.05
						c16.924-0.279,32.634,8.355,41.033,22.513l185.21,312.183c8.071,13.61,8.035,31.003-0.091,45.434
						C2603.703,2944.651,2588.534,2954.193,2572.23,2955.093z M2385.665,2582.663c-5.082,0.099-9.827,2.871-12.382,7.233
						l-194.526,332.536c-2.638,4.507-2.639,9.946-0.002,14.185c2.631,4.237,7.539,6.696,12.799,6.422l380.735-19.868
						c4.895-0.255,9.459-3.114,11.915-7.452c2.448-4.333,2.458-9.568,0.022-13.656L2398,2589.394
						C2395.469,2585.143,2390.746,2582.564,2385.665,2582.663z"/>
				</g>
				<g>
					<g>
						<path style="fill:#FFFFFF;" d="M2405.938,2852.815c-4.803-4.334-11.596-6.31-20.389-5.922
							c-9.13,0.403-16.093,2.94-20.88,7.615c-4.795,4.679-7.2,11.382-7.208,20.103c-0.008,8.411,2.436,14.811,7.33,19.189
							c4.886,4.375,11.792,6.346,20.703,5.909c8.683-0.426,15.458-3.111,20.321-8.051c4.859-4.934,7.295-11.479,7.304-19.642
							C2413.129,2863.548,2410.737,2857.149,2405.938,2852.815z"/>
					</g>
					<g>
						<path style="fill:#FFFFFF;" d="M2374.969,2821.396l21.506-0.898c4.838-0.202,8.831-4.466,9.088-9.2l7.282-134.262
							c0.132-2.441-0.761-4.467-2.474-6.188c-1.711-1.722-4.093-2.33-6.584-2.261l-35.849,0.989
							c-2.51,0.069-4.912,0.713-6.645,2.538c-1.73,1.826-2.64,4.029-2.511,6.475l7.068,134.442
							C2366.1,2817.761,2370.107,2821.599,2374.969,2821.396z"/>
					</g>
				</g>
			</g>
			<g>
				<g>
					<g>
						<path style="fill:#FFFFFF;" d="M1080.674,1550.414c0,23.67-18.658,43.309-42.078,43.867l-1.404,0.045
							c-23.518,0.56-42.166-18.312-42.166-42.153v-201.454c0-23.842,18.424-43.255,41.942-43.255h1.889
							c23.419,0,41.817,19.275,41.817,42.945V1550.414z"/>
						<path style="fill:#FFFFFF;" d="M973.615,1497.851c0,22.294-19.842,38.005-42.095,41.574h-0.153
							c-22.335,0-39.831-17.863-39.831-40.306v-92.883c0-22.443,17.343-41.676,39.678-41.676h0.306
							c22.253,0,42.095,18.728,42.095,41.022V1497.851z"/>
					</g>
					<g>
						<path style="fill:#FFFFFF;" d="M1337.617,1349.49c0-23.163-17.65-42.027-40.075-42.027h-1.808
							c-22.517,0-43.764,18.997-43.764,42.324v197.111c0,23.328,19.782,41.802,42.299,41.266l2.308-0.043
							c22.425-0.534,41.041-19.743,41.041-42.906V1349.49z"/>
						<path style="fill:#FFFFFF;" d="M1433.971,1401.837c0-21.442-16.348-40.844-36.929-40.844h0.355
							c-20.654,0-38.368,19.869-38.368,41.449v89.31c0,21.58,17.715,36.968,38.368,36.968h-0.178
							c20.581,0,36.751-16.699,36.751-38.141V1401.837z"/>
					</g>
				</g>
				<polygon style="fill:#FFFFFF;" points="1230.558,1480.629 1109.224,1482.41 1109.224,1417.787 1230.558,1416.665 				"/>
			</g>
		</g>
	</g>
</g>
</svg>
