<svg xmlns="http://www.w3.org/2000/svg" version="1.1" xmlns:xlink="http://www.w3.org/1999/xlink" xmlns:svgjs="http://svgjs.dev/svgjs" width="2000" height="900" preserveAspectRatio="none" viewBox="0 0 2000 900"><g mask="url(&quot;#SvgjsMask1021&quot;)" fill="none"><rect width="2000" height="900" x="0" y="0" fill="rgba(27, 30, 37, 1)"></rect><path d="M0,823.758C151.425,816.072,232.516,641.42,365.981,569.477C515.587,488.833,762.742,535.034,827.292,377.812C892.729,218.432,693.037,71.419,637.418,-91.647C594.788,-216.632,626.14,-367.823,539.096,-467.13C452.165,-566.308,302.885,-565.231,180.106,-613.385C42.841,-667.221,-78.358,-780.459,-225.176,-766.88C-380.242,-752.538,-535.551,-668.543,-622.242,-539.176C-706.577,-413.325,-647.968,-246.145,-674.127,-96.925C-701.431,58.824,-838.143,209.118,-779.14,355.821C-720.351,501.995,-525.728,526.763,-390.662,607.881C-260.481,686.065,-151.66,831.456,0,823.758" fill="#16181e"></path><path d="M2000 1780.162C2162.1639999999998 1775.904 2273.226 1624.1309999999999 2416.598 1548.238 2576.983 1463.3400000000001 2792.7380000000003 1459.15 2892.638 1307.654 2994.373 1153.374 2991.12 941.181 2932.466 765.932 2877.439 601.521 2712.163 511.185 2586.197 392.057 2473.762 285.726 2382.942 144.95000000000005 2233.469 104.87900000000002 2085.124 65.11099999999999 1933.942 130.16499999999996 1788.026 178.08399999999995 1646.421 224.587 1496.05 266.111 1398.738 379.004 1301.53 491.776 1274.0700000000002 645.2909999999999 1257.738 793.279 1241.828 937.443 1252.342 1082.175 1306.279 1216.812 1362.03 1355.9769999999999 1452.7240000000002 1475.9859999999999 1569.101 1570.492 1695.662 1673.269 1837.02 1784.442 2000 1780.162" fill="#20242c"></path></g><defs><mask id="SvgjsMask1021"><rect width="2000" height="900" fill="#ffffff"></rect></mask></defs></svg>